# AST/ASF file generated using VICON BodyLanguage
# -----------------------------------------------
:version 1.10
:name VICON
:units
  mass 1.0
  length 0.45
  angle deg
:documentation
   .ast/.asf automatically generated from VICON data using
   VICON BodyBuilder and BodyLanguage model FoxedUp or BRILLIANT.MOD
:root
   order TX TY TZ RX RY RZ
   axis XYZ
   position 0 0 0  
   orientation 0 0 0 
:bonedata
  begin
     id 1 
     name lhipjoint
     direction 0.716248 -0.617586 0.324924 
     length 2.63557 
     axis 0 0 0  XYZ
  end
  begin
     id 2 
     name lfemur
     direction 0.34202 -0.939693 0  
     length 7.01235  
     axis 0 0 20  XYZ
    dof rx ry rz
    limits (-160.0 20.0)
           (-70.0 70.0)
           (-60.0 70.0)
  end
  begin
     id 3 
     name ltibia
     direction 0.34202 -0.939693 0   
     length 8.14348   
     axis 0 0 20   XYZ
    dof rx
    limits (-10.0 170.0)
  end
  begin
     id 4 
     name lfoot
     direction 0.0982064 -0.26982 0.95789   
     length 1.99077   
     axis -90 7.62852e-016 20   XYZ
    dof rx rz
    limits (-45.0 90.0)
           (-70.0 20.0)
  end
  begin
     id 5 
     name ltoes
     direction 1.53511e-011 -4.21891e-011 1   
     length 0.99735   
     axis -90 7.62852e-016 20   XYZ
    dof rx
    limits (-90.0 20.0)
  end
  begin
     id 6 
     name rhipjoint
     direction -0.687828 -0.642391 0.337975   
     length 2.5338  
     axis 0 0 0  XYZ 
  end
  begin
     id 7 
     name rfemur
     direction -0.34202 -0.939693 0   
     length 6.90199   
     axis 0 0 -20   XYZ
    dof rx ry rz
    limits (-160.0 20.0)
           (-70.0 70.0)
           (-70.0 60.0)
  end
  begin
     id 8 
     name rtibia
     direction -0.34202 -0.939693 0   
     length 8.07725   
     axis 0 0 -20   XYZ
    dof rx
    limits (-10.0 170.0)
 end
 begin
     id 9 
     name rfoot
     direction -0.0912384 -0.250675 0.963762   
     length 2.11621  
     axis -90 -7.62852e-016 -20   XYZ
    dof rx rz
    limits (-45.0 90.0)
           (-20.0 70.0)
  end
  begin
     id 10 
     name rtoes
     direction -1.5359e-011 -4.21894e-011 1   
     length 1.06031   
     axis -90 -7.62852e-016 -20   XYZ
    dof rx
    limits (-90.0 20.0)
  end
  begin
     id 11 
     name lowerback
     direction -0.0403572 0.987953 -0.149396   
     length 2.05637   
     axis 0 0 0   XYZ
    dof rx ry rz
    limits (-20.0 45.0)
           (-30.0 30.0)
           (-30.0 30.0)
  end
  begin
     id 12 
     name upperback
     direction -0.00512151 0.997598 0.0690792   
     length 2.01086   
     axis 0 0 0   XYZ
    dof rx ry rz
    limits (-20.0 45.0)
           (-30.0 30.0)
           (-30.0 30.0)
  end
  begin
     id 13 
     name thorax
     direction 0.0136133 0.989392 0.14463   
     length 2.09035   
     axis 0 0 0   XYZ
    dof rx ry rz
    limits (-20.0 45.0)
           (-30.0 30.0)
           (-30.0 30.0)
  end
  begin
     id 14 
     name lowerneck
     direction 0.0250714 0.992811 0.11704   
     length 1.70806   
     axis 0 0 0   XYZ
    dof rx ry rz
    limits (-20.0 45.0)
           (-30.0 30.0)
           (-30.0 30.0)
  end
  begin
     id 15 
     name upperneck
     direction -0.0519205 0.998394 -0.0226787   
     length 1.6689   
     axis 0 0 0   XYZ
    dof rx ry rz
    limits (-20.0 45.0)
           (-30.0 30.0)
           (-30.0 30.0)
  end
  begin
     id 16
     name head
     direction -0.0201693 0.999547 -0.0223192  
     length 1.83412  
     axis 0 0 0   XYZ
    dof rx ry rz
    limits (-20.0 45.0)
           (-30.0 30.0)
           (-30.0 30.0)
  end
  begin
     id 17 
     name lclavicle
     direction 0.89585 0.444077 -0.0157448  
     length 3.39587  
     axis 0 0 0   XYZ
    dof ry rz
    limits (-20.0 10.0)
           (0.0 20.0)
  end
  begin
     id 18 
     name lhumerus
     direction 1 -4.48956e-011 1.99132e-028   
     length 5.79199   
     axis 180 -30 -90   XYZ
    dof rx ry rz
    limits (-60.0 90.0)
           (-90.0 90.0)
           (-90.0 90.0)
  end
  begin
     id 19
     name lradius
     direction 1 -4.48974e-011 8.72912e-028   
     length 3.49908   
     axis 180 -30 -90   XYZ
    dof rx
    limits (-10.0 170.0)
  end
  begin
     id 20
     name lwrist
     direction 1 -4.48994e-011 4.76442e-027   
     length 1.74954   
     axis -3.27502e-015 90 90   XYZ
    dof ry
    limits (-180.0 0.0)
 end
  begin
     id 21 
     name lhand
     direction 1 -4.48945e-011 9.531e-027   
     length 0.593861   
     axis -6.08098e-015 90 90   XYZ
    dof rx rz
    limits (-90.0 90.0)
           (-45.0 45.0)
  end
  begin
     id 22 
     name lfingers
     direction 1 -4.48945e-011 1.9062e-026   
     length 0.478786   
     axis -1.21619e-014 90 90   XYZ
    dof rx
    limits (0.0 90.0)
  end
  begin
     id 23
     name lthumb
     direction 0.707107 -6.34904e-011 0.707107   
     length 0.687444   
     axis -90 45 -9.86923e-015   XYZ
    dof rx rz
    limits (-45.0 45.0)
           (-45.0 45.0)
  end
  begin
     id 24 
     name rclavicle
     direction -0.940466 0.338394 0.0318182   
     length 3.51226  
     axis 0 0 0   XYZ 
    dof ry rz
    limits (-10.0 20.0)
           (-20.0 0.0)
  end
  begin
     id 25 
     name rhumerus
     direction -1 -4.48976e-011 2.0905e-027  
     length 5.73799   
     axis 180 30 90   XYZ
    dof rx ry rz
    limits (-90.0 60.0)
           (-90.0 90.0)
           (-90.0 90.0)
  end
  begin
     id 26 
     name rradius
     direction -1 -4.48968e-011 -9.39692e-029   
     length 3.57916   
     axis 180 30 90   XYZ
    dof rx
    limits (-10.0 170.0)
  end
  begin
     id 27 
     name rwrist
     direction -1 -4.48959e-011 4.7652e-027   
     length 1.78958   
     axis -3.27502e-015 -90 -90   XYZ
    dof ry
    limits (-180.0 0.0)
  end
  begin
     id 28
     name rhand
     direction -1 -4.49042e-011 9.5267e-027   
     length 0.615577   
     axis -6.08098e-015 -90 -90   XYZ
    dof rx rz
    limits (-90.0 90.0)
           (-45.0 45.0)
  end
  begin
     id 29
     name rfingers
     direction -1 -4.48935e-011 1.90629e-026   
     length 0.496294   
     axis -1.21619e-014 -90 -90   XYZ
    dof rx
    limits (0.0 90.0)
  end
  begin
     id 30
     name rthumb
     direction -0.707107 -6.34977e-011 0.707107   
     length 0.712582   
     axis -90 -45 9.86923e-015   XYZ
    dof rx rz
    limits (-45.0 45.0)
           (-45.0 45.0)
  end
:hierarchy
  begin
    root lhipjoint rhipjoint lowerback
    lhipjoint lfemur
    lfemur ltibia
    ltibia lfoot
    lfoot ltoes
    rhipjoint rfemur
    rfemur rtibia
    rtibia rfoot
    rfoot rtoes
    lowerback upperback
    upperback thorax
    thorax lowerneck lclavicle rclavicle
    lowerneck upperneck
    upperneck head
    lclavicle lhumerus
    lhumerus lradius
    lradius lwrist
    lwrist lhand lthumb
    lhand lfingers
    rclavicle rhumerus
    rhumerus rradius
    rradius rwrist
    rwrist rhand rthumb
    rhand rfingers
  end

#!OML:ASF H:\Terrain\Patient Classification 1\PaulMetrics\March17Take5\PaulMetrics.ASF
:FULLY-SPECIFIED
:DEGREES
2778
root 14.9491 17.5011 -14.906 -0.954562 -52.3159 8.24336
lowerback 6.59676 0.247762 -6.24701
upperback -7.76524 -0.612849 -0.759308
thorax -12.1059 0.178393 2.78702
lowerneck -1.51063 -6.59654 0.0741017
upperneck 2.30073 -8.76623 -1.67144
head 0.870342 -4.40186 -0.621236
rclavicle 2.48481e-014 6.4605e-015
rhumerus -21.0313 -24.8488 -2.38104
rradius 109.92
rwrist -32.3182
rhand -25.4635 -18.9952
rfingers 7.12502
rthumb 1.06387 -48.9723
lclavicle 2.48481e-014 6.4605e-015
lhumerus -9.52281 -15.6508 34.0469
lradius 124.299
lwrist 40.6201
lhand -26.39 -32.7849
lfingers 7.12502
lthumb 0.169067 -2.80524
rfemur -4.06773 9.54222 12.0848
rtibia 18.0029
rfoot -20.9258 -30.3329
rtoes -5.68581
lfemur -14.3959 -7.63464 -16.9453
ltibia 21.7892
lfoot -14.7753 11.9288
ltoes -2.34178
2779
root 14.9499 17.5058 -14.9022 -0.739183 -52.0594 8.05069
lowerback 6.56966 0.430416 -5.79496
upperback -7.84686 -0.330197 -0.924174
thorax -12.205 0.267633 2.30599
lowerneck -1.72365 -6.99538 0.055857
upperneck 2.8292 -9.29743 -1.51655
head 1.07478 -4.66833 -0.601514
rclavicle -4.33599e-015 -2.18663e-015
rhumerus -21.5373 -24.9475 -2.09722
rradius 109.09
rwrist -33.1078
rhand -25.3712 -19.3756
rfingers 7.12502
rthumb 1.1531 -49.3522
lclavicle -4.33599e-015 -2.18663e-015
lhumerus -9.78027 -17.2868 35.4617
lradius 124.841
lwrist 40.5284
lhand -25.1814 -33.4168
lfingers 7.12502
lthumb 1.33633 -3.4412
rfemur -4.04337 8.96219 12.1804
rtibia 17.906
rfoot -20.1789 -30.4052
rtoes -8.28656
lfemur -14.5603 -7.72995 -16.8618
ltibia 21.8621
lfoot -14.548 11.9263
ltoes -3.39481
2780
root 14.95 17.5054 -14.9068 -0.607499 -51.7736 8.02281
lowerback 6.25129 1.091 -5.15233
upperback -7.93027 0.622234 -1.2832
thorax -12.1636 0.644802 1.39523
lowerneck -1.31471 -7.81838 -0.824469
upperneck 3.1705 -10.3977 -0.786446
head 1.19012 -5.21806 -0.254833
rclavicle -4.21486e-014 1.59525e-014
rhumerus -23.4527 -24.8697 -0.309743
rradius 108.169
rwrist -33.5913
rhand -25.5288 -19.8137
rfingers 7.12502
rthumb 1.00085 -49.7911
lclavicle -4.21486e-014 1.59525e-014
lhumerus -8.96754 -19.8125 37.3676
lradius 125.09
lwrist 39.8622
lhand -24.473 -33.7954
lfingers 7.12502
lthumb 2.02056 -3.82522
rfemur -4.0849 8.55923 12.1821
rtibia 17.8795
rfoot -20.6909 -30.4369
rtoes -8.5241
lfemur -14.7758 -7.87647 -16.8423
ltibia 21.8651
lfoot -14.3001 11.8052
ltoes -3.15585
2781
root 14.9467 17.5017 -14.9212 -0.392899 -51.4962 7.87854
lowerback 6.26497 1.22436 -5.02691
upperback -8.12324 0.807192 -1.27382
thorax -12.4048 0.728196 1.29981
lowerneck -0.29008 -7.91368 -1.04895
upperneck 2.60408 -10.5451 -0.425927
head 0.873236 -5.28759 -0.053143
rclavicle -2.11271e-014 -3.8763e-015
rhumerus -23.4834 -24.6263 0.0331325
rradius 107.032
rwrist -33.8183
rhand -25.7561 -20.3892
rfingers 7.12502
rthumb 0.781319 -50.3675
lclavicle -2.11271e-014 -3.8763e-015
lhumerus -9.71876 -21.647 39
lradius 125.305
lwrist 38.5843
lhand -24.3505 -34.3997
lfingers 7.12502
lthumb 2.13883 -4.43066
rfemur -4.21053 8.6277 12.3274
rtibia 18.037
rfoot -21.8062 -30.3954
rtoes -5.65255
lfemur -14.9085 -8.0046 -16.6834
ltibia 21.709
lfoot -14.1231 11.5549
ltoes -3.09654
2782
root 14.9389 17.5082 -14.9372 -0.525724 -51.2993 8.07639
lowerback 6.10525 1.09848 -5.52817
upperback -8.09271 0.622477 -0.965099
thorax -12.2784 0.7013 1.95055
lowerneck 0.901 -8.05441 -3.10235
upperneck 1.33593 -10.7868 1.79246
head 0.534384 -5.40534 1.00612
rclavicle 3.16813e-014 -2.69353e-014
rhumerus -22.2155 -24.9046 -0.467873
rradius 105.732
rwrist -34.0326
rhand -25.5959 -21.0604
rfingers 7.12502
rthumb 0.936067 -51.0381
lclavicle 3.16813e-014 -2.69353e-014
lhumerus -11.1007 -22.5266 40.7178
lradius 125.582
lwrist 37.2032
lhand -25.0725 -34.5367
lfingers 7.12502
lthumb 1.44151 -4.56179
rfemur -4.23971 9.14973 12.2329
rtibia 18.1957
rfoot -23.339 -30.071
rtoes -0.431306
lfemur -14.9198 -8.01019 -16.7748
ltibia 21.5694
lfoot -13.9738 11.3124
ltoes -3.32556
2783
root 14.9352 17.515 -14.943 -1.02343 -51.1656 8.57671
lowerback 6.19241 1.0769 -5.90555
upperback -8.06794 0.543787 -0.954873
thorax -12.3096 0.6988 2.18496
lowerneck 1.27068 -8.12982 -4.03019
upperneck 1.00314 -10.9187 2.97372
head 0.499296 -5.47426 1.54135
rclavicle 3.38431e-014 -5.96354e-016
rhumerus -21.5897 -25.1242 -1.04479
rradius 104.578
rwrist -34.3219
rhand -25.4 -21.5895
rfingers 7.12502
rthumb 1.12521 -51.5663
lclavicle 3.38431e-014 -5.96354e-016
lhumerus -12.1085 -23.5475 42.1772
lradius 125.759
lwrist 35.9642
lhand -25.4344 -35.0171
lfingers 7.12502
lthumb 1.09197 -5.04011
rfemur -4.11373 9.1754 11.887
rtibia 18.2892
rfoot -24.0598 -29.7799
rtoes 1.02336
lfemur -14.7798 -8.26182 -17.1308
ltibia 21.5087
lfoot -14.0481 11.4529
ltoes -2.71137
2784
root 14.9334 17.5043 -14.9445 -1.04253 -51.0191 8.51296
lowerback 6.22302 1.13284 -5.73151
upperback -8.09889 0.63222 -0.999476
thorax -12.3658 0.724437 2.02312
lowerneck 1.57346 -8.24657 -4.43276
upperneck 0.941331 -11.0998 3.6324
head 0.50123 -5.569 1.82633
rclavicle 1.96548e-014 1.09332e-014
rhumerus -21.385 -25.0751 -1.30517
rradius 103.441
rwrist -34.5677
rhand -25.3549 -21.9652
rfingers 7.12502
rthumb 1.16885 -51.9417
lclavicle 1.96548e-014 1.09332e-014
lhumerus -12.9208 -24.9495 43.6481
lradius 125.854
lwrist 34.7337
lhand -25.0194 -35.5951
lfingers 7.12502
lthumb 1.49285 -5.62061
rfemur -4.12879 8.59888 11.9611
rtibia 18.4418
rfoot -22.9607 -30.1524
rtoes -3.19429
lfemur -14.6703 -8.54441 -17.0945
ltibia 21.3816
lfoot -14.0838 11.4877
ltoes -2.42988
2785
root 14.9245 17.4922 -14.9547 -0.523395 -50.7968 7.95523
lowerback 6.06056 0.80326 -5.63921
upperback -7.89443 0.234744 -0.880398
thorax -11.992 0.522658 2.17267
lowerneck 0.0379379 -8.05788 -2.83296
upperneck 1.9347 -10.7877 2.36289
head 0.883419 -5.39808 1.08346
rclavicle -7.08916e-014 -1.05356e-014
rhumerus -19.9573 -25.6681 -2.74553
rradius 102.041
rwrist -34.4738
rhand -25.2773 -22.2929
rfingers 7.12502
rthumb 1.24373 -52.2691
lclavicle -7.08916e-014 -1.05356e-014
lhumerus -13.9449 -25.4123 44.4652
lradius 126.004
lwrist 33.2434
lhand -25.552 -35.2951
lfingers 7.12502
lthumb 0.978469 -5.31763
rfemur -4.25589 8.36258 12.4233
rtibia 18.5367
rfoot -21.9391 -30.6968
rtoes -5.80085
lfemur -14.7374 -8.60385 -16.6238
ltibia 21.2962
lfoot -14.186 11.0092
ltoes -0.756593
2786
root 14.9155 17.4984 -14.9689 -0.370706 -50.5709 7.79609
lowerback 6.05252 0.529663 -5.79537
upperback -7.85567 -0.144115 -0.811076
thorax -11.9124 0.356256 2.39795
lowerneck -1.80533 -7.73065 -0.264161
upperneck 3.85806 -10.3038 -0.546846
head 1.47613 -5.16194 -0.310952
rclavicle 5.46658e-015 -1.75924e-014
rhumerus -18.5738 -25.8877 -4.15717
rradius 100.627
rwrist -34.1529
rhand -25.4524 -22.6617
rfingers 7.12502
rthumb 1.07466 -52.6387
lclavicle 5.46658e-015 -1.75924e-014
lhumerus -15.2619 -26.0809 45.6085
lradius 126.043
lwrist 32.1537
lhand -25.9366 -35.1839
lfingers 7.12502
lthumb 0.606934 -5.20502
rfemur -4.13291 8.4731 12.5746
rtibia 18.4021
rfoot -22.478 -30.5247
rtoes -3.53307
lfemur -14.8375 -8.69769 -16.4209
ltibia 21.4344
lfoot -14.3827 10.7475
ltoes 0.947147
2787
root 14.9118 17.5056 -14.9846 -0.39456 -50.3712 7.80391
lowerback 6.26785 0.295453 -6.09197
upperback -7.94168 -0.505001 -0.686176
thorax -12.1153 0.223488 2.75946
lowerneck -4.74064 -8.01514 1.11511
upperneck 7.15677 -10.6293 -2.94241
head 2.87867 -5.36957 -1.5386
rclavicle 3.40419e-014 -1.59028e-014
rhumerus -17.0996 -25.8323 -5.52725
rradius 99.1392
rwrist -33.6755
rhand -25.4297 -22.8416
rfingers 7.12502
rthumb 1.09652 -52.8185
lclavicle 3.40419e-014 -1.59028e-014
lhumerus -16.8345 -26.7891 47.0403
lradius 126.074
lwrist 31.9385
lhand -25.8145 -35.2467
lfingers 7.12502
lthumb 0.724951 -5.26814
rfemur -3.94548 8.61025 12.5978
rtibia 18.2057
rfoot -23.4091 -30.0836
rtoes 0.37448
lfemur -14.9607 -8.82818 -16.372
ltibia 21.5938
lfoot -14.3986 11.0206
ltoes -0.148702
2788
root 14.9103 17.4982 -14.9966 -0.19588 -50.1937 7.46705
lowerback 6.41222 0.179193 -6.03989
upperback -7.95897 -0.648183 -0.515068
thorax -12.2081 0.164016 2.94196
lowerneck -2.82828 -7.8181 -0.0236766
upperneck 5.09759 -10.4221 -0.826011
head 2.02761 -5.22284 -0.522254
rclavicle 3.44643e-014 1.33186e-014
rhumerus -16.0555 -25.8151 -6.14031
rradius 97.686
rwrist -33.528
rhand -25.2419 -23.0875
rfingers 7.12502
rthumb 1.27796 -53.0634
lclavicle 3.44643e-014 1.33186e-014
lhumerus -18.1146 -27.4978 48.5624
lradius 126.044
lwrist 32.222
lhand -25.8957 -35.46
lfingers 7.12502
lthumb 0.64649 -5.48124
rfemur -3.86716 8.1528 12.8834
rtibia 18.1428
rfoot -23.0465 -29.9826
rtoes 0.6931
lfemur -14.9672 -9.02335 -16.1006
ltibia 21.6045
lfoot -14.3763 11.2452
ltoes -0.807053
